<svg xmlns="http://www.w3.org/2000/svg" width="222.667" height="72.43"><path fill="#6D6E70" d="M23.565 35.961c-2.344.099-4.164 2.081-4.065 4.425.097 2.347 2.077 4.167 4.422 4.069 2.347-.098 4.169-2.078 4.07-4.423-.098-2.346-2.08-4.169-4.427-4.071zM43.05 35.961c-2.344.099-4.164 2.081-4.065 4.425.097 2.347 2.077 4.167 4.422 4.069 2.347-.098 4.169-2.078 4.07-4.423-.098-2.346-2.08-4.169-4.427-4.071z"/><path fill="#6D6E70" d="M51.135 33.142l1.431-1.099a.8494.8494 0 0 0 .287-.947.849.849 0 0 0-.804-.577h-2.878c-6.376 0-6.566.008-6.628.011-4.063.169-7.149 1.678-8.878 4.296-1.774-2.894-5.052-4.518-9.25-4.518-.226 0-.452.005-.658.014-.073.001-1.004.001-2.226.001l-6.289-.001c-.354 0-.672.22-.796.553a.8494.8494 0 0 0 .239.939l1.343 1.167c-1.89 2.118-2.893 4.889-2.773 7.736.252 6.035 5.305 10.749 11.395 10.478 2.149-.09 4.167-.826 5.856-2.025.391 2.272 1.368 4.088 2.932 4.129h.042c1.545 0 2.594-1.771 3.083-4.009 1.836 1.339 4.074 2.123 6.431 2.123.154 0 .308-.003.464-.01 2.921-.122 5.62-1.374 7.599-3.525s3.001-4.946 2.879-7.868c-.107-2.574-1.094-4.978-2.801-6.868zm-15.957 13.44c-.077 3.309-1.225 5.016-1.698 5.016-.474-.013-1.543-1.76-1.466-5.092.054-2.307.667-3.686 1.669-3.686.404.01.724.23.975.675.26.458.561 1.364.52 3.087zm14.627.143c-1.671 1.818-3.951 2.875-6.418 2.979-2.458.098-4.79-.793-6.545-2.359.018-.24.031-.48.036-.723.041-1.693-.208-3.027-.74-3.965-.548-.966-1.405-1.511-2.484-1.535-.967 0-3.228.521-3.339 5.346-.005.229-.004.459.001.688-1.563 1.389-3.572 2.25-5.737 2.341-5.127.21-9.412-3.753-9.625-8.851-.111-2.667.944-5.255 2.895-7.1a.8526.8526 0 0 0 .266-.636.8512.8512 0 0 0-.292-.624l-.303-.263h4.013c1.282 0 2.251-.001 2.274-.002 4.415-.18 7.784 1.653 9.037 4.982.124.328.436.546.786.55.381-.017.667-.208.798-.533 1.506-3.742 5.283-4.671 8.184-4.792.087-.002.9-.009 6.561-.009h.375l-.209.161a.8502.8502 0 0 0-.332.635c-.012.25.088.493.272.663 1.807 1.671 2.858 3.945 2.96 6.402.101 2.468-.762 4.828-2.434 6.645z"/><path fill="#C6576A" d="M20.765 12.175l.472 3 .006.042c9.546 1.322 18.397-.567 21.37-1.319l.025-.545.111-2.404c-10.775 2.393-18.832 1.679-21.984 1.226z"/><path fill="#6D6E70" d="M63.87 35.426c-.008-.021-.014-.037-.019-.045.035-.055.099-.14.149-.206.409-.545 1.093-1.457 1.325-3.693.515-5.001-2.313-6-2.433-6.041a.9982.9982 0 0 0-1.207.497c-.45.887-2.003 1.458-4.287 1.587-2.279-2.065-4.805-3.777-7.495-5.142 3.975-1.406 5.921-2.986 5.778-4.7-.242-2.928-6.492-3.916-11.348-4.24l.531-11.44.013-.026-.012-.218C44.83 1.059 44.774 0 36.807 0c-1.706 0-3.583.053-5.578.158C28.45.302 19.277.89 17.931 2.385c-.206.229-.311.512-.295.797l.014.267.029.037 1.9 12.064c-1.162.282-2.259.584-3.269.907-4.667 1.492-6.956 3.19-6.801 5.048.143 1.728 2.381 2.778 5.188 3.417C5.896 31.137.131 41.385.131 52.96c0 .552.448 1 1 1s1-.448 1-1c0-11.642 6.198-21.848 15.455-27.532 3.107.408 6.291.468 7.889.468 2.448 0 5.01-.11 7.615-.326 5.176-.428 10.053-1.239 13.979-2.31 3.38 1.443 6.523 3.458 9.278 6.015.193.179.438.275.713.267 1.932-.063 4.324-.436 5.695-1.746.376.507.782 1.522.581 3.481-.175 1.684-.614 2.27-.936 2.698-.351.468-.832 1.108-.357 2.271.019.047.042.092.068.136 2.993 4.998 4.575 10.731 4.575 16.578 0 .552.448 1 1 1s1-.448 1-1c0-6.181-1.665-12.242-4.816-17.534zM31.317 1.855c1.967-.103 3.814-.156 5.49-.156 2.351 0 3.955.103 4.994.229-1.888.495-5.419 1.086-10.409 1.347-1.396.072-2.771.109-4.087.109h-.001c-2.982 0-5.103-.184-6.437-.38 1.832-.4 5.187-.875 10.45-1.149zM19.554 4.473c.042.01.091.017.134.027.207.047.423.091.649.13.061.011.119.022.181.033.279.046.569.087.867.124.077.01.155.018.232.026.245.028.493.054.744.076.08.007.159.015.239.021.31.026.621.048.931.067.068.004.134.007.202.011.258.015.513.027.765.038.083.003.166.007.249.01.297.012.587.021.865.028.038.001.071.001.108.002.25.006.487.01.713.013.071 0 .138.001.206.002.237.002.464.003.663.003h.002c1.346 0 2.751-.038 4.176-.112.244-.013.501-.028.765-.044.087-.006.178-.012.267-.018.181-.012.363-.024.55-.038.113-.008.227-.017.342-.025.169-.013.341-.027.515-.041.128-.011.254-.021.384-.032.171-.015.346-.031.52-.047.299-.027.6-.057.905-.088l.238-.024c.226-.024.451-.049.678-.075.048-.006.097-.011.146-.017 2.402-.281 4.776-.684 6.313-1.222l-.353 7.646-.111 2.404-.025.545-.053 1.15-.105 2.268c-1.105.439-5.124 1.322-10.3 1.591-1.03.054-2.078.081-3.114.081-3.885 0-6.46-.369-7.298-.594l-.242-1.538-.258-1.641-.006-.042-.472-3-1.212-7.698zM32.95 23.876c-2.559.212-5.074.32-7.475.32-2.002 0-3.774-.077-5.346-.204-.603-.049-1.173-.106-1.716-.169-.045-.005-.092-.01-.137-.016-.552-.065-1.074-.137-1.558-.216-3.654-.596-5.457-1.516-5.515-2.226-.042-.502 1.08-1.835 5.625-3.288.468-.149.956-.294 1.461-.434.5-.139 1.018-.273 1.549-.404.002-.001.004-.001.006-.002l.274 1.738c.021.424.086 1.714 8.923 1.714 1.065 0 2.143-.028 3.203-.084.12-.006 11.998-.684 11.887-2.797l.124-2.672c.368.024.723.052 1.07.082l.169.015c.335.03.66.063.975.097l.154.018c1.348.153 2.508.348 3.481.566.026.006.055.012.081.018.206.047.399.096.588.145a17.697 17.697 0 0 1 .678.19c.07.021.137.043.205.065.141.045.28.09.408.137.068.024.129.05.194.075.188.072.359.145.516.218.083.039.17.078.245.117.063.033.116.066.173.1.072.042.142.083.204.124.047.032.088.063.129.094.058.043.11.087.157.13.031.029.061.057.086.085.044.048.079.095.109.142.015.023.034.046.045.069.036.069.06.137.065.203.042.502-1.08 1.834-5.625 3.287-.229.073-.479.142-.717.213-.526.157-1.071.309-1.636.456-.564.146-1.147.288-1.749.423-3.354.753-7.228 1.334-11.31 1.671z"/><g><g fill="#6D6E70"><path d="M98.638 28.563c-4.162-.636-6.773-1.904-7.851-3.813-.928 1.714-3.523 3.057-7.772 4.033-.103-.242-.298-.612-.594-1.1-.245-.342-.413-.614-.508-.806 4.107-.536 6.601-1.66 7.481-3.376h-7.336v-1.686h2.05v-4.546h5.724v-1.613h1.984v1.613h5.65v4.546h2.048v1.686h-7.41c1.08 1.862 3.572 2.886 7.482 3.084-.339.682-.656 1.342-.948 1.978zM82.136 14.701v-1.688h4.176v-1.905h1.983v1.905h4.985v-1.905h1.906v1.905h4.329v1.688h-4.329v1.466H93.28v-1.466h-4.985v1.466h-1.983v-1.466h-4.176zm7.552 7.114c.047-.682.072-1.66.072-2.932h-3.74v2.932h3.668zm2.129-2.932c0 .39-.025.926-.076 1.614v1.318h3.74v-2.932h-3.664zM123.111 28.711V11.765h16.208v16.947h-1.829v-.808h-12.549v.808h-1.83zm1.83-15.333v13.059h12.549V13.378h-12.549zm.737 3.449v-1.466h6.087v-1.536h1.611v1.536h1.469l-.66-1.102 1.025-.364c.099.148.269.414.517.806.146.29.266.512.362.66h.664v1.466h-3.303c.051 1.614.171 2.936.364 3.96.54-.928 1.056-2.001 1.544-3.228l1.322.66c-.885 2.011-1.714 3.523-2.496 4.551.046.096.123.22.223.368.045.194.095.346.146.438.193.442.413.636.656.59.247 0 .393-.222.44-.665.099-.29.249-.926.438-1.904.25.194.613.416 1.102.66-.048.438-.17.979-.365 1.612-.046.246-.1.416-.145.514-.295 1.026-.861 1.516-1.689 1.47-.833 0-1.442-.564-1.836-1.688-.193.193-.463.512-.805.954-.395.388-.686.682-.881.88-.143-.198-.537-.617-1.173-1.249h.069c-.926.096-2.271.269-4.031.512-.245.05-.414.074-.514.074l-.295-1.54c2.254-.194 4.16-.392 5.724-.586v.732c.442-.442.877-.902 1.321-1.392-.343-1.227-.589-3.13-.732-5.725h-6.159zm.585 5.576v-4.475h4.546v4.475h-4.546zm1.321-3.23v1.982h1.905v-1.982h-1.905zM164.173 27.903l-.22-1.614c.537 0 1.364-.05 2.495-.146-.783.096-.711.096.218 0l-1.169-1.834 1.537-.44c.148.246.393.66.732 1.25.246.438.416.734.516.88l-.221.07c.148 0 .366-.022.658-.07h.517c.394-.736.758-1.471 1.098-2.202l1.539.368c-.146.29-.366.71-.656 1.244-.148.194-.249.342-.296.444.684 0 1.37-.052 2.058-.148l-.149.658c.93-1.22 1.346-3.52 1.248-6.896v-7.406h5.354V26c0 .342.148.512.441.512h.148c.242.05.389-.148.438-.591.05-.682.122-1.834.219-3.444.195.048.465.126.809.218.195.098.315.148.369.148 0 1.174-.074 2.3-.225 3.374-.048 1.368-.633 2.028-1.758 1.982h-.441c-1.123 0-1.686-.59-1.686-1.762V13.825h-1.981V19.4c0 2.494-.145 4.352-.442 5.572-.239 1.172-.832 2.42-1.758 3.74-.05-.098-.172-.268-.369-.512-.338-.392-.586-.686-.729-.88-3.034.145-5.8.339-8.294.583zm-.072-9.974v-1.466h9.166v1.466h-9.166zm.514-2.642v-3.3h1.537v1.838h1.76v-2.572h1.543v2.572h1.763v-1.838h1.538v3.3h-8.141zm.292 8.436v-4.55h7.63v4.55h-7.63zm1.615-3.08v1.614h4.329v-1.614h-4.329zM204.928 18.077v-1.614h7.413v-1.25h1.908v1.25h7.406v1.614h-7.406v3.594c1.707 2.052 4.352 3.592 7.923 4.618-.392.44-.737.956-1.028 1.542-3.127-1.126-5.428-2.494-6.895-4.108v4.988h-1.908v-4.988c-1.467 1.66-3.743 3.106-6.824 4.329-.348-.586-.707-1.099-1.104-1.54 3.326-1.028 5.969-2.643 7.928-4.84v-3.594h-7.413zm10.788-2.568v-1.176h-4.842v1.176h-1.91v-1.176h-4.477v-1.614h4.477v-1.541h1.91v1.541h4.842v-1.541h1.903v1.541h4.405v1.614h-4.405v1.176h-1.903zm-5.576 7.334c-.541-.54-1.15-1.052-1.834-1.54-.585.83-1.343 1.614-2.273 2.346-.539-.533-.956-.925-1.248-1.172 1.463-1.028 2.539-2.322 3.227-3.89l1.76.222c-.191.442-.441.88-.732 1.318.148.103.37.248.658.442.344.193.881.54 1.618 1.028l-1.176 1.246zm10.273.516l-2.569-2.205c-.389.586-.883 1.124-1.473 1.614-.143-.144-.44-.392-.877-.734a5.4595 5.4595 0 0 1-.442-.363c1.177-.83 1.985-1.862 2.425-3.084l1.762.148c-.05.096-.124.268-.225.516-.145.342-.27.586-.364.732 1.074.734 2.05 1.44 2.933 2.126l-1.17 1.25z"/></g><path fill="#6D6E70" d="M110.958 20.981c-.408 0-.744-.333-.744-.746 0-.409.336-.743.744-.743.41 0 .743.333.743.743 0 .412-.333.746-.743.746zM152.154 20.981c-.41 0-.742-.333-.742-.746 0-.409.332-.743.742-.743s.744.333.744.743c0 .412-.334.746-.744.746zM193.353 20.981c-.41 0-.746-.333-.746-.746 0-.409.336-.743.746-.743s.742.333.742.743c0 .412-.332.746-.742.746z"/><g><path fill="#C6576A" d="M167.306 49.401V37.488h-2.939v11.913h-.028v2.939h14.83v-2.939z"/><path fill="#6D6E70" d="M181.993 37.488h2.94v14.828h-2.94zM147.326 49.817v-.016c-2.136-.061-3.928-1.481-4.539-3.431H155.349c.09-.478.139-.965.139-1.468 0-4.432-3.588-8.023-8.018-8.023-4.429 0-8.022 3.592-8.022 8.023 0 4.428 3.594 8.02 8.022 8.02 2.578 0 4.861-1.218 6.33-3.105h-6.474zm.144-9.822c2.201 0 4.06 1.446 4.684 3.438h-9.367c.625-1.992 2.49-3.438 4.683-3.438zM214.451 49.832v-.006c-2.143-.067-3.943-1.496-4.553-3.455h12.631c.092-.478.139-.965.139-1.468 0-4.45-3.607-8.063-8.059-8.063-4.452 0-8.059 3.612-8.059 8.063s3.606 8.057 8.059 8.057c2.592 0 4.89-1.227 6.365-3.128h-6.523zm.158-9.858c2.211 0 4.084 1.455 4.71 3.459h-9.421c.627-2.004 2.503-3.459 4.711-3.459zM128.4 36.222c-1.996 0-3.814.729-5.223 1.93v-.665h-2.826v14.828h2.826V44.912h.045c-.027-.215-.045-.424-.045-.643 0-2.884 2.336-5.219 5.223-5.219 2.881 0 5.218 2.335 5.218 5.219 0 .219-.021.428-.042.643h2.836c.016-.215.029-.429.029-.643 0-4.442-3.6-8.047-8.041-8.047zM203.748 44.903c0-4.432-3.588-8.023-8.016-8.023-1.933 0-3.701.682-5.084 1.817v-1.209h-2.939v14.828h2.928v-7.402h.012c-.004-.064-.012-.13-.012-.195 0-2.814 2.284-5.089 5.096-5.089 2.809 0 5.09 2.274 5.09 5.089 0 .065-.008.131-.01.195h.1v7.402h2.848v-7.412h-.013zM117.457 44.04v-6.601h-2.828v.048h-.106v.719c-1.461-1.235-3.346-1.985-5.406-1.985-4.621 0-8.361 3.747-8.361 8.365 0 4.615 3.74 8.363 8.361 8.363 2.06 0 3.945-.75 5.406-1.988v1.354h2.935v-7.182c.014-.181.019-.365.019-.547-.002-.183-.007-.367-.02-.546zm-8.341 5.931c-2.974 0-5.386-2.408-5.386-5.384 0-2.973 2.412-5.385 5.386-5.385s5.384 2.412 5.384 5.385c0 2.976-2.411 5.384-5.384 5.384z"/><path fill="#C6576A" d="M94.912 46.168c-.674 2.199-2.717 3.803-5.137 3.803-2.974 0-5.386-2.408-5.386-5.384 0-2.973 2.412-5.385 5.386-5.385 2.471 0 4.548 1.671 5.182 3.943h3.056c-.685-3.931-4.114-6.923-8.238-6.923-4.616 0-8.363 3.747-8.363 8.365 0 4.615 3.747 8.363 8.363 8.363 4.081 0 7.471-2.922 8.208-6.782h-3.071z"/></g></g><g fill="#6D6E70"><path d="M1.911 69.146c.215.438.41.964.585 1.577.247-.032.485-.064.716-.096.231-.479.43-.987.598-1.529l.955.322c-.143.367-.294.701-.454 1.004.47-.096.912-.203 1.326-.322v.453c.215-.573.374-1.174.478-1.804.151-.844.227-2.117.227-3.821v-3.285h3.536v9.078c0 .167.083.258.25.274.183 0 .275-.167.275-.502v-2.508l1.003.43c0 1.681-.096 2.719-.287 3.117-.174.311-.505.466-.991.466-.462 0-.804-.083-1.027-.251-.215-.159-.323-.41-.323-.752v-8.444H7.453v2.807c-.016 1.497-.111 2.743-.287 3.738-.183 1.09-.533 2.202-1.051 3.332l-.919-.8c.08-.167.155-.334.227-.502-1.099.343-2.863.649-5.291.92L0 70.901c.526-.016 1.027-.044 1.505-.084-.144-.413-.327-.863-.55-1.35l.956-.321zM.132 64.702h5.733v.956H.132v-.956zm2.209-3.583H3.44v2.055h.956v-1.493h1.051v2.448H.43v-2.448h1.051v1.493h.86v-2.055zM.478 66.314h4.718v2.676H.478v-2.676zm3.667 1.829v-.956H1.529v.956h2.616zM35.079 62.17h2.711v-1.051h1.207v1.051h1.469v1.004h-1.469v.859H37.79v-.859h-2.711V62.17zm.274 2.282h4.79v-.849h1.099v.849h4.861v1.063h-4.861v1.887c.175.255.362.494.562.717.358-.334.633-.66.824-.979.231-.374.422-.867.573-1.48l1.135.179c-.096.366-.195.693-.299.979.677.383 1.302.824 1.875 1.326l-.609.955c-.549-.557-1.103-1.019-1.66-1.386-.215.414-.525.837-.932 1.267.12.111.239.207.358.286.725.565 1.863 1.127 3.416 1.685l-.752.872c-1.163-.518-2.102-1.016-2.819-1.493-.637-.43-1.194-.912-1.672-1.445v3.5h-1.099v-3.477c-.549.598-1.051 1.056-1.505 1.374-.749.558-1.7 1.099-2.854 1.624l-.621-1.051c1.13-.422 2.122-.936 2.974-1.541.294-.207.565-.426.812-.656-.375-.375-.756-.697-1.146-.968-.024.032-.044.06-.06.084-.239.382-.649.84-1.23 1.373l-.956-.824c.501-.406.908-.808 1.218-1.206.279-.414.525-.899.741-1.457l1.099.43c-.12.271-.231.518-.334.74.525.327 1.003.682 1.433 1.063.151-.159.295-.326.43-.502v-1.875h-4.79v-1.064zm5.697-2.282h1.374v-1.051h1.207v1.051h2.723v1.04H43.63v.823h-1.207v-.823H41.05v-1.04zM72.736 61.155l1.003.441c-.351 1.115-.717 2.043-1.099 2.783v7.871h-1.11v-6.115c-.271.398-.569.792-.896 1.183l-.382-1.338c.502-.661.948-1.346 1.338-2.055.398-.636.78-1.56 1.146-2.77zm1.481.526h6.163v3.989h-2.484v1.039h3.583v1.087h-2.628c.279.485.601.947.968 1.386.43.478 1.027 1.007 1.792 1.588l-.752.956c-.836-.692-1.505-1.39-2.007-2.09-.366-.486-.685-1.039-.956-1.66v4.371H76.75v-4.551h-.036c-.255.629-.514 1.131-.776 1.505-.486.78-1.286 1.604-2.401 2.473l-.621-1.051c.789-.574 1.41-1.135 1.863-1.685.303-.342.581-.757.836-1.242h-2.4v-1.087h3.535V65.67h-2.532v-3.989zm5.017 2.926v-1.863h-3.87v1.863h3.87zM105.76 61.597h3.727v.86c-.127.43-.263.864-.406 1.302.852-.39 1.509-.784 1.971-1.183.406-.342.84-.815 1.302-1.421h1.051c.463.645.948 1.154 1.457 1.528.367.311.977.661 1.828 1.052l-.656 1.003c-.423-.167-.837-.395-1.242-.681l-.013-.012v.608h-3.81v-.663c-.43.293-.939.59-1.529.892l-.442-.868c-.151.459-.311.924-.478 1.394.311.558.533 1.059.669 1.505.167.462.25.856.25 1.183-.024.629-.155 1.083-.394 1.361-.255.327-.808.49-1.66.49l-.346-1.147c.215.032.406.048.573.048.23 0 .394-.056.49-.167.127-.088.191-.282.191-.585 0-.366-.06-.713-.179-1.039-.127-.422-.37-.92-.729-1.493.438-1.151.756-2.119.956-2.902h-1.434v9.698h-1.146V61.597zm3.858 3.81h2.878v3.356h-1.672l.705.274c-.096.263-.191.494-.287.692.509.446.943.884 1.302 1.314l-.717.729c-.263-.375-.593-.761-.991-1.159-.056.096-.107.18-.155.251-.223.414-.621.908-1.194 1.481l-.824-.717c.502-.462.904-.912 1.207-1.35.263-.422.485-.928.669-1.517h-.92v-3.354zm1.959 2.437v-1.529h-1.051v1.529h1.051zm-.239-4.145h3.01c-.502-.414-.991-.924-1.47-1.529-.501.582-.983 1.067-1.445 1.458-.031.031-.063.056-.095.071zm1.72 1.708h3.058v3.356h-1.804l.717.274c-.119.334-.23.629-.334.884.652.541 1.206 1.075 1.66 1.601l-.717.729c-.334-.47-.785-.955-1.35-1.457a.3392.3392 0 0 1-.036.071c-.207.414-.573.908-1.099 1.481l-.801-.717c.446-.462.805-.912 1.075-1.35.239-.422.446-.928.621-1.517h-.991v-3.355zm2.102 2.437v-1.529h-1.135v1.529h1.135zM142.941 61.203l1.003.441c-.278.916-.565 1.704-.86 2.365v8.241h-1.098v-6.294c-.327.493-.678.979-1.052 1.457l-.394-1.326c.493-.677.927-1.369 1.301-2.078.383-.644.749-1.579 1.1-2.806zm8.301 2.926l.143 1.099-3.977.419c.08.764.167 1.357.263 1.779.294 1.131.677 1.986 1.146 2.567.518.669.964 1.004 1.338 1.004.104 0 .171-.052.203-.155.095-.119.187-.769.274-1.947l1.183.681c-.167 1.147-.366 1.903-.597 2.27-.215.303-.542.454-.98.454-.652 0-1.361-.438-2.125-1.313-.662-.757-1.184-1.844-1.564-3.261-.137-.494-.248-1.146-.335-1.959l-2.616.274-.131-1.11 2.64-.263c-.071-.995-.124-2.166-.155-3.512h1.194c.04 1.321.095 2.452.167 3.392l3.929-.419zm-2.234-2.532c.692.63 1.233 1.167 1.624 1.613l-1.051.716c-.351-.525-.828-1.126-1.434-1.803l.861-.526zM175.761 61.872h4.109v1.11h-1.577v2.425h1.302v1.11h-1.302v2.712c.542-.199 1.052-.402 1.528-.609v1.194c-1.154.533-2.477 1.027-3.965 1.481l-.322-1.194c.581-.159 1.135-.323 1.66-.49v-3.094h-1.338v-1.11h1.338v-2.425h-1.434v-1.11zm4.36-.322h6.211v5.912h-2.58v1.206h2.616v1.003h-2.616v1.374h3.142v1.003h-7.728v-1.003h3.439v-1.374h-2.389v-1.003h2.389v-1.206h-2.484V61.55zm1.099 2.436h1.385v-1.481h-1.385v1.481zm1.385 2.532V64.93h-1.385v1.588h1.385zm1.146-4.013v1.481h1.481v-1.481h-1.481zm1.482 4.013V64.93h-1.481v1.588h1.481zM215.677 61.071h1.326v2.915c.405 1.783 1.015 3.244 1.826 4.383.653.956 1.717 1.931 3.189 2.927l-.813 1.087c-1.218-.797-2.142-1.581-2.771-2.354-.812-.924-1.466-2.063-1.959-3.416-.397 1.409-.948 2.496-1.647 3.261-.725.86-1.832 1.696-3.321 2.509l-.753-1.087c1.84-1.107 3.109-2.317 3.811-3.631.701-1.259 1.071-2.484 1.111-3.679v-2.915z"/></g></svg>